<svg xmlns="http://www.w3.org/2000/svg" xmlns:xlink="http://www.w3.org/1999/xlink" version="1.1" width="1000" height="1000" viewBox="0 0 1000 1000" xml:space="preserve">
<desc>Created with Fabric.js 3.5.0</desc>
<defs>
</defs>
<rect x="0" y="0" width="100%" height="100%" fill="rgba(255,255,255,0)"/>
<g transform="matrix(1.9992 0 0 1.9992 499.9913 499.9913)" id="363737">
<g style="" vector-effect="non-scaling-stroke">
		<g transform="matrix(1 0 0 1 18.679 -23.4825)" id="Layer_1">
<path style="stroke: none; stroke-width: 1; stroke-dasharray: none; stroke-linecap: butt; stroke-dashoffset: 0; stroke-linejoin: miter; stroke-miterlimit: 4; is-custom-font: none; font-file-url: none; fill: rgb(255,255,255); fill-rule: evenodd; opacity: 1;" transform=" translate(-246.179, -204.0175)" d="M 246.4 204.35 v -0.665 c -0.136 0.223 -0.324 0.446 -0.442 0.665 H 246.4 z" stroke-linecap="round"/>
</g>
		<g transform="matrix(1 0 0 1 0 0)" id="Layer_1">
<path style="stroke: none; stroke-width: 1; stroke-dasharray: none; stroke-linecap: butt; stroke-dashoffset: 0; stroke-linejoin: miter; stroke-miterlimit: 4; is-custom-font: none; font-file-url: none; fill: rgb(255,255,255); fill-rule: evenodd; opacity: 1;" transform=" translate(-227.5, -227.5)" d="M 0 0 v 455 h 455 V 0 H 0 z M 141.522 378.002 H 74.016 V 174.906 h 67.506 V 378.002 z M 107.769 147.186 h -0.446 C 84.678 147.186 70 131.585 70 112.085 c 0 -19.928 15.107 -35.087 38.211 -35.087 c 23.109 0 37.31 15.159 37.752 35.087 C 145.963 131.585 131.32 147.186 107.769 147.186 z M 385 378.002 h -67.524 V 269.345 c 0 -27.291 -9.756 -45.92 -34.195 -45.92 c -18.664 0 -29.755 12.543 -34.641 24.693 c -1.776 4.34 -2.24 10.373 -2.24 16.459 v 113.426 h -67.537 c 0 0 0.905 -184.043 0 -203.096 H 246.4 v 28.779 c 8.973 -13.807 24.986 -33.547 60.856 -33.547 c 44.437 0 77.744 29.02 77.744 91.398 V 378.002 z" stroke-linecap="round"/>
</g>
</g>
</g>
</svg>